<svg width="48" height="48" viewBox="0 0 48 48" fill="none" xmlns="http://www.w3.org/2000/svg">
<g clip-path="url(#clip0_2367_1647)">
<path fill-rule="evenodd" clip-rule="evenodd" d="M20.5092 2.77344L23.0292 4.28544C26.2258 6.17429 28.6814 9.09838 29.9892 12.5734C30.4332 11.5734 30.9612 10.6034 31.4512 9.62344L33.4132 11.5854C37.8172 15.9894 41.9992 22.5894 41.9992 28.9994C41.9992 37.5954 36.6992 43.0454 28.2192 43.9874L25.4392 44.2954L26.0472 41.5654C26.5212 39.4294 26.6072 38.0334 26.5072 37.0554C26.3872 35.8254 25.8032 34.8594 25.0752 33.8994C24.3792 32.9794 23.6892 32.0574 23.1372 31.0394C20.8672 32.8334 19.9872 34.4534 19.7052 35.7874C19.3452 37.4954 19.8552 39.2414 20.7872 41.1054L22.4312 44.3934L18.7792 43.9874C13.6272 43.4154 8.55116 39.9734 6.55116 34.9514C4.46116 29.6974 5.93916 23.3394 12.6912 17.4874C17.1712 13.6054 19.5432 8.57144 20.5092 2.77344ZM23.1732 9.37344C21.6492 13.6534 18.7232 17.5534 15.3092 20.5114C9.48716 25.5574 8.96516 30.1994 10.2692 33.4714C11.2392 35.9114 13.3332 37.9174 15.8152 39.0554C15.5234 37.7079 15.5153 36.3143 15.7912 34.9634C16.4432 31.8714 18.6672 28.9734 22.9392 26.3034L25.0932 24.9574L25.8972 27.3674C26.6012 29.4794 28.0612 30.9734 29.2032 32.8274C30.4592 34.8674 30.6992 37.2074 30.4432 39.5434C35.6832 38.2334 37.9992 34.2594 37.9992 28.9994C37.9992 24.5554 35.3192 20.1954 32.6592 16.7874C31.5632 19.2434 29.2532 20.1074 26.9992 21.2354V17.9994C26.9992 15.2614 25.8852 11.9234 23.1732 9.37544V9.37344Z" fill="white"/>
</g>
<defs>
<clipPath id="clip0_2367_1647">
<rect width="48" height="48" fill="white"/>
</clipPath>
</defs>
</svg>
