<svg width="48" height="48" viewBox="0 0 48 48" fill="none" xmlns="http://www.w3.org/2000/svg">
<g clip-path="url(#clip0_102_1495)">
<path d="M24 10.8873L23.2929 11.5944L24 12.3015L24.7071 11.5944L24 10.8873ZM7.73654 25.7365L8.44365 25.0294L8.44365 25.0294L7.73654 25.7365ZM8.44365 26.4437L7.73654 27.1508L7.73654 27.1508L8.44365 26.4437ZM24 42L23.2929 42.7071L24 43.4142L24.7071 42.7071L24 42ZM39.5563 10.8873C43.4616 14.7925 43.4616 21.1242 39.5563 25.0294L40.9706 26.4437C45.6569 21.7574 45.6569 14.1594 40.9706 9.47309L39.5563 10.8873ZM25.4142 10.8873C29.3195 6.98206 35.6511 6.98206 39.5563 10.8873L40.9706 9.47309C36.2843 4.7868 28.6863 4.7868 24 9.47309L25.4142 10.8873ZM24.7071 11.5944L25.4142 10.8873L24 9.47309L23.2929 10.1802L24.7071 11.5944ZM22.5858 10.8873L23.2929 11.5944L24.7071 10.1802L24 9.47308L22.5858 10.8873ZM8.44365 10.8873C12.3489 6.98205 18.6805 6.98205 22.5858 10.8873L24 9.47308C19.3137 4.78679 11.7157 4.78679 7.02944 9.47308L8.44365 10.8873ZM8.44365 25.0294C4.53841 21.1242 4.53841 14.7925 8.44365 10.8873L7.02944 9.47308C2.34315 14.1594 2.34315 21.7574 7.02944 26.4436L8.44365 25.0294ZM9.15076 25.7365L8.44365 25.0294L7.02944 26.4436L7.73654 27.1508L9.15076 25.7365ZM24.7071 41.2929L9.15076 25.7365L7.73654 27.1508L23.2929 42.7071L24.7071 41.2929ZM23.2929 41.2929L23.2929 41.2929L24.7071 42.7071L24.7071 42.7071L23.2929 41.2929ZM38.8492 25.7365L23.2929 41.2929L24.7071 42.7071L40.2635 27.1508L38.8492 25.7365ZM39.5563 25.0294L38.8492 25.7365L40.2635 27.1508L40.9706 26.4437L39.5563 25.0294Z" fill="white"/>
<path d="M30 18H20V24H28V30H18" stroke="white" stroke-width="4" stroke-linejoin="round"/>
<path d="M24 14V18" stroke="white" stroke-width="4" stroke-linejoin="round"/>
<path d="M24 30V34" stroke="white" stroke-width="4" stroke-linejoin="round"/>
</g>
<defs>
<clipPath id="clip0_102_1495">
<rect width="48" height="48" fill="white"/>
</clipPath>
</defs>
</svg>
