<svg width="48" height="48" viewBox="0 0 48 48" fill="none" xmlns="http://www.w3.org/2000/svg">
<rect x="5" y="20" width="9" height="22" stroke="white" stroke-width="2"/>
<path d="M28.2067 5.94558L27.4996 5.23847V5.23847L28.2067 5.94558ZM33.137 9.12026L32.2007 8.76914L33.137 9.12026ZM14.0002 20.1521V21.1521C14.2654 21.1521 14.5198 21.0467 14.7073 20.8592L14.0002 20.1521ZM14 20.1521V19.1521C13.4477 19.1521 13 19.5998 13 20.1521H14ZM14 42H13C13 42.5523 13.4477 43 14 43V42ZM39.2114 37.5889L38.2471 37.3241L39.2114 37.5889ZM42.6106 25.2114L43.5749 25.4762L42.6106 25.2114ZM29.0001 20.1521L28.0637 19.8009C27.9486 20.108 27.9913 20.4521 28.1781 20.7217C28.365 20.9912 28.6721 21.1521 29.0001 21.1521V20.1521ZM28.9138 6.65269C30.4347 5.13177 32.9559 6.75521 32.2007 8.76914L34.0733 9.47139C35.5838 5.44351 30.5414 2.19667 27.4996 5.23847L28.9138 6.65269ZM14.7073 20.8592L28.9138 6.65269L27.4996 5.23847L13.2931 19.445L14.7073 20.8592ZM14 21.1521H14.0002V19.1521H14V21.1521ZM15 20.1523V20.1521H13V20.1523H15ZM15 42V20.1523H13V42H15ZM33.4256 41H14V43H33.4256V41ZM38.2471 37.3241C37.6509 39.4952 35.6771 41 33.4256 41V43C36.5777 43 39.341 40.8932 40.1757 37.8537L38.2471 37.3241ZM41.6463 24.9465L38.2471 37.3241L40.1757 37.8537L43.5749 25.4762L41.6463 24.9465ZM38.7534 21.1521C40.7337 21.1521 42.1707 23.0369 41.6463 24.9465L43.5749 25.4762C44.4489 22.2935 42.0539 19.1521 38.7534 19.1521V21.1521ZM29.0001 21.1521H38.7534V19.1521H29.0001V21.1521ZM32.2007 8.76914L28.0637 19.8009L29.9364 20.5032L34.0733 9.47139L32.2007 8.76914Z" fill="white"/>
</svg>
