<svg width="48" height="48" viewBox="0 0 48 48" fill="none" xmlns="http://www.w3.org/2000/svg">
<path d="M13 31L13.7071 31.7071L14 31.4142V31H13ZM9 35L8.29289 34.2929L8 34.5858V35H9ZM9 37H8V38H9V37ZM39 37V38H40V37H39ZM39 35H40V34.5858L39.7071 34.2929L39 35ZM35 31H34V31.4142L34.2929 31.7071L35 31ZM14 21C14 15.4772 18.4772 11 24 11V9C17.3726 9 12 14.3726 12 21H14ZM14 31V21H12V31H14ZM9.70711 35.7071L13.7071 31.7071L12.2929 30.2929L8.29289 34.2929L9.70711 35.7071ZM10 37V35H8V37H10ZM39 36H9V38H39V36ZM38 35V37H40V35H38ZM34.2929 31.7071L38.2929 35.7071L39.7071 34.2929L35.7071 30.2929L34.2929 31.7071ZM34 21V31H36V21H34ZM24 11C29.5228 11 34 15.4772 34 21H36C36 14.3726 30.6274 9 24 9V11Z" fill="white"/>
<path d="M20 8C20 5.79086 21.7909 4 24 4C26.2091 4 28 5.79086 28 8V10H20V8Z" fill="white"/>
<path d="M28 40C28 40.5253 27.8965 41.0454 27.6955 41.5307C27.4945 42.016 27.1999 42.457 26.8284 42.8284C26.457 43.1999 26.016 43.4945 25.5307 43.6955C25.0454 43.8965 24.5253 44 24 44C23.4747 44 22.9546 43.8965 22.4693 43.6955C21.984 43.4945 21.543 43.1999 21.1716 42.8284C20.8001 42.457 20.5055 42.016 20.3045 41.5307C20.1035 41.0454 20 40.5253 20 40L24 40H28Z" fill="white"/>
</svg>
