<svg width="48" height="48" viewBox="0 0 48 48" fill="none" xmlns="http://www.w3.org/2000/svg">
<path d="M5 24C5 28.7274 6.76234 33.285 9.94278 36.7826C13.1232 40.2802 17.4933 42.4665 22.1994 42.9145C26.9055 43.3625 31.6096 42.04 35.3929 39.2053C39.1761 36.3707 41.7668 32.2274 42.6587 27.585C43.5507 22.9425 42.68 18.1342 40.2166 14.0994C37.7532 10.0645 33.8741 7.0929 29.3371 5.76499C24.8 4.43707 19.9309 4.84823 15.6807 6.91815C11.4306 8.98807 8.10474 12.5681 6.35283 16.9589" stroke="white" stroke-width="2"/>
<path d="M5 6V17H16" stroke="white" stroke-width="2"/>
<path d="M22 14.5V26.5L30 32" stroke="white" stroke-width="4"/>
</svg>
