<svg width="48" height="48" viewBox="0 0 48 48" fill="none" xmlns="http://www.w3.org/2000/svg">
<path d="M28 5L28.9864 4.8356C28.906 4.35341 28.4888 4 28 4V5ZM20 5V4C19.5112 4 19.094 4.35341 19.0136 4.8356L20 5ZM28.9856 10.9138L27.9992 11.0782C28.0576 11.4285 28.2975 11.7217 28.6294 11.8482L28.9856 10.9138ZM32.8366 13.1406L32.205 13.9159C32.4806 14.1404 32.8546 14.2017 33.1874 14.077L32.8366 13.1406ZM38.4545 11.0359L39.3206 10.5359C39.0761 10.1126 38.5615 9.92801 38.1037 10.0995L38.4545 11.0359ZM42.4545 17.9642L43.0901 18.7362C43.4675 18.4255 43.565 17.8875 43.3206 17.4642L42.4545 17.9642ZM37.8243 21.7759L37.1887 21.0039C36.9148 21.2294 36.7809 21.5831 36.8368 21.9335L37.8243 21.7759ZM37.8243 26.2242L36.8368 26.0666C36.7809 26.417 36.9148 26.7708 37.1887 26.9963L37.8243 26.2242ZM42.4545 30.0359L43.3205 30.5359C43.5649 30.1126 43.4675 29.5746 43.0901 29.2639L42.4545 30.0359ZM38.4545 36.9641L38.1037 37.9006C38.5614 38.0721 39.0761 37.8875 39.3205 37.4641L38.4545 36.9641ZM32.8365 34.8595L33.1874 33.923C32.8545 33.7983 32.4805 33.8597 32.2049 34.0842L32.8365 34.8595ZM28.9856 37.0862L28.6294 36.1518C28.2975 36.2783 28.0576 36.5715 27.9992 36.9218L28.9856 37.0862ZM28 43V44C28.4888 44 28.906 43.6466 28.9864 43.1644L28 43ZM20 43L19.0136 43.1644C19.094 43.6466 19.5112 44 20 44V43ZM19.0144 37.0862L20.0008 36.9218C19.9424 36.5715 19.7025 36.2783 19.3706 36.1518L19.0144 37.0862ZM15.1634 34.8594L15.795 34.0841C15.5194 33.8596 15.1454 33.7983 14.8126 33.923L15.1634 34.8594ZM9.54547 36.9641L8.67945 37.4641C8.92387 37.8874 9.43853 38.072 9.89629 37.9005L9.54547 36.9641ZM5.54547 30.0359L4.9099 29.2638C4.5325 29.5745 4.43503 30.1125 4.67945 30.5359L5.54547 30.0359ZM10.1757 26.2241L10.8113 26.9961C11.0852 26.7706 11.2191 26.4169 11.1632 26.0665L10.1757 26.2241ZM10.1757 21.7758L11.1632 21.9334C11.2191 21.583 11.0852 21.2292 10.8113 21.0037L10.1757 21.7758ZM5.54552 17.9641L4.67949 17.4641C4.43507 17.8874 4.53254 18.4254 4.90995 18.7361L5.54552 17.9641ZM9.54552 11.0358L9.89634 10.0994C9.43857 9.92791 8.92391 10.1125 8.67949 10.5358L9.54552 11.0358ZM15.1635 13.1405L14.8126 14.077C15.1455 14.2017 15.5195 14.1403 15.7951 13.9158L15.1635 13.1405ZM19.0144 10.9138L19.3706 11.8482C19.7025 11.7217 19.9424 11.4285 20.0008 11.0782L19.0144 10.9138ZM28 4H20V6H28V4ZM29.972 10.7494L28.9864 4.8356L27.0136 5.1644L27.9992 11.0782L29.972 10.7494ZM33.4683 12.3653C32.2399 11.3646 30.8495 10.5541 29.3418 9.97936L28.6294 11.8482C29.9346 12.3457 31.1396 13.0479 32.205 13.9159L33.4683 12.3653ZM33.1874 14.077L38.8054 11.9724L38.1037 10.0995L32.4858 12.2042L33.1874 14.077ZM37.5885 11.5359L41.5885 18.4642L43.3206 17.4642L39.3206 10.5359L37.5885 11.5359ZM41.819 17.1921L37.1887 21.0039L38.4599 22.5479L43.0901 18.7362L41.819 17.1921ZM39 24C39 23.1901 38.9357 22.3945 38.8118 21.6183L36.8368 21.9335C36.9441 22.6059 37 23.2961 37 24H39ZM38.8118 26.3819C38.9357 25.6056 39 24.8099 39 24H37C37 24.7039 36.9441 25.3941 36.8368 26.0666L38.8118 26.3819ZM43.0901 29.2639L38.4599 25.4522L37.1887 26.9963L41.8189 30.808L43.0901 29.2639ZM39.3205 37.4641L43.3205 30.5359L41.5885 29.5359L37.5885 36.4641L39.3205 37.4641ZM32.4857 35.7959L38.1037 37.9006L38.8053 36.0277L33.1874 33.923L32.4857 35.7959ZM29.3418 38.0206C30.8494 37.4459 32.2398 36.6355 33.4682 35.6348L32.2049 34.0842C31.1395 34.9522 29.9346 35.6543 28.6294 36.1518L29.3418 38.0206ZM28.9864 43.1644L29.972 37.2506L27.9992 36.9218L27.0136 42.8356L28.9864 43.1644ZM20 44H28V42H20V44ZM18.028 37.2506L19.0136 43.1644L20.9864 42.8356L20.0008 36.9218L18.028 37.2506ZM14.5317 35.6347C15.7601 36.6354 17.1505 37.4459 18.6582 38.0206L19.3706 36.1518C18.0654 35.6543 16.8604 34.9521 15.795 34.0841L14.5317 35.6347ZM9.89629 37.9005L15.5142 35.7958L14.8126 33.923L9.19465 36.0276L9.89629 37.9005ZM4.67945 30.5359L8.67945 37.4641L10.4115 36.4641L6.4115 29.5359L4.67945 30.5359ZM9.54012 25.4521L4.9099 29.2638L6.18104 30.8079L10.8113 26.9961L9.54012 25.4521ZM9 24C9 24.8099 9.06428 25.6055 9.18819 26.3817L11.1632 26.0665C11.0559 25.3941 11 24.7039 11 24H9ZM9.18821 21.6181C9.06428 22.3944 9 23.1901 9 24H11C11 23.296 11.0559 22.6058 11.1632 21.9334L9.18821 21.6181ZM4.90995 18.7361L9.54014 22.5478L10.8113 21.0037L6.18109 17.192L4.90995 18.7361ZM8.67949 10.5358L4.67949 17.4641L6.41154 18.4641L10.4115 11.5358L8.67949 10.5358ZM15.5143 12.2041L9.89634 10.0994L9.19469 11.9723L14.8126 14.077L15.5143 12.2041ZM18.6582 9.97936C17.1506 10.5541 15.7602 11.3645 14.5319 12.3653L15.7951 13.9158C16.8605 13.0478 18.0654 12.3457 19.3706 11.8482L18.6582 9.97936ZM19.0136 4.8356L18.028 10.7494L20.0008 11.0782L20.9864 5.1644L19.0136 4.8356Z" fill="white"/>
<circle cx="24" cy="24" r="6" stroke="white" stroke-width="2"/>
</svg>
