<svg width="48" height="48" viewBox="0 0 48 48" fill="none" xmlns="http://www.w3.org/2000/svg">
<g clip-path="url(#clip0_102_1695)">
<path d="M14.5061 28.2333L15.0061 29.0993C15.3611 28.8943 15.5551 28.4934 15.4954 28.0878C15.4358 27.6822 15.1346 27.3541 14.7356 27.26L14.5061 28.2333ZM34.6997 32.7403L35.1997 33.6063L34.6997 32.7403ZM32.8048 19.8646L32.3048 18.9986C31.9498 19.2036 31.7558 19.6045 31.8154 20.0101C31.8751 20.4157 32.1763 20.7438 32.5753 20.8379L32.8048 19.8646ZM10.915 24.4198C9.25819 21.55 10.2414 17.8805 13.1112 16.2236L12.1112 14.4916C8.28486 16.7007 6.97386 21.5934 9.18299 25.4198L10.915 24.4198ZM14.7356 27.26C13.1798 26.8932 11.7764 25.9116 10.915 24.4198L9.18299 25.4198C10.3313 27.4087 12.2065 28.7185 14.2766 29.2066L14.7356 27.26ZM12.6112 30.482L15.0061 29.0993L14.0061 27.3673L11.6112 28.7499L12.6112 30.482ZM10.4151 38.6781C8.75823 35.8084 9.74148 32.1388 12.6112 30.482L11.6112 28.7499C7.78489 30.9591 6.47389 35.8518 8.68303 39.6781L10.4151 38.6781ZM18.6112 40.8743C15.7415 42.5311 12.0719 41.5479 10.4151 38.6781L8.68303 39.6781C10.8922 43.5045 15.7849 44.8155 19.6112 42.6063L18.6112 40.8743ZM34.1997 31.8743L18.6112 40.8743L19.6112 42.6063L35.1997 33.6063L34.1997 31.8743ZM36.3958 23.6781C38.0527 26.5479 37.0694 30.2174 34.1997 31.8743L35.1997 33.6063C39.026 31.3972 40.337 26.5045 38.1279 22.6781L36.3958 23.6781ZM32.5753 20.8379C34.1311 21.2047 35.5345 22.1863 36.3958 23.6781L38.1279 22.6781C36.9796 20.6892 35.1044 19.3794 33.0343 18.8913L32.5753 20.8379ZM34.6997 17.6159L32.3048 18.9986L33.3048 20.7306L35.6997 19.348L34.6997 17.6159ZM36.8958 9.41977C38.5527 12.2895 37.5694 15.9591 34.6997 17.6159L35.6997 19.348C39.526 17.1388 40.837 12.2461 38.6279 8.41977L36.8958 9.41977ZM28.6997 7.22362C31.5694 5.56676 35.239 6.55002 36.8958 9.41977L38.6279 8.41977C36.4187 4.59343 31.526 3.28243 27.6997 5.49157L28.6997 7.22362ZM13.1112 16.2236L28.6997 7.22362L27.6997 5.49157L12.1112 14.4916L13.1112 16.2236Z" fill="white"/>
<path d="M30 24L21 29.1962L21 18.8038L30 24Z" fill="white"/>
</g>
<defs>
<clipPath id="clip0_102_1695">
<rect width="48" height="48" fill="white"/>
</clipPath>
</defs>
</svg>
