<svg width="48" height="48" viewBox="0 0 48 48" fill="none" xmlns="http://www.w3.org/2000/svg">
<path d="M9.5 13L24 5.5L38.5 13V27.5L38.2455 28.1908C36.1532 33.87 32.0716 38.5973 26.7582 41.4955L24 43L21.2418 41.4955C15.9284 38.5973 11.8468 33.87 9.75449 28.1908L9.5 27.5V13Z" stroke="white" stroke-width="2" stroke-linecap="square" stroke-linejoin="round"/>
<circle cx="24" cy="19" r="5" stroke="white" stroke-width="2" stroke-linejoin="round"/>
<path d="M33 34C33 32.8181 32.7672 31.6478 32.3149 30.5558C31.8626 29.4639 31.1997 28.4718 30.364 27.636C29.5282 26.8003 28.5361 26.1374 27.4442 25.6851C26.3522 25.2328 25.1819 25 24 25C22.8181 25 21.6478 25.2328 20.5558 25.6851C19.4639 26.1374 18.4718 26.8003 17.636 27.636C16.8003 28.4718 16.1374 29.4639 15.6851 30.5558C15.2328 31.6478 15 32.8181 15 34L24 34H33Z" stroke="white" stroke-width="2" stroke-linejoin="round"/>
</svg>
