<svg width="24" height="24" viewBox="0 0 24 24" fill="none" xmlns="http://www.w3.org/2000/svg">
<path d="M4 22C3.45 22 2.97933 21.8043 2.588 21.413C2.19667 21.0217 2.00067 20.5507 2 20V10C2 9.45 2.196 8.97933 2.588 8.588C2.98 8.19667 3.45067 8.00067 4 8H20C20.55 8 21.021 8.196 21.413 8.588C21.805 8.98 22.0007 9.45067 22 10V20C22 20.55 21.8043 21.021 21.413 21.413C21.0217 21.805 20.5507 22.0007 20 22H4ZM4 20H20V10H4V20ZM10.775 18.475L15.375 15.425C15.525 15.325 15.6 15.1833 15.6 15C15.6 14.8167 15.525 14.675 15.375 14.575L10.775 11.525C10.6083 11.4083 10.4373 11.3957 10.262 11.487C10.0867 11.5783 9.99933 11.7243 10 11.925V18.075C10 18.275 10.0877 18.421 10.263 18.513C10.4383 18.605 10.609 18.5923 10.775 18.475ZM5 7C4.71667 7 4.47933 6.904 4.288 6.712C4.09667 6.52 4.00067 6.28267 4 6C3.99933 5.71733 4.09533 5.48 4.288 5.288C4.48067 5.096 4.718 5 5 5H19C19.2833 5 19.521 5.096 19.713 5.288C19.905 5.48 20.0007 5.71733 20 6C19.9993 6.28267 19.9033 6.52033 19.712 6.713C19.5207 6.90567 19.2833 7.00133 19 7H5ZM8 4C7.71667 4 7.47933 3.904 7.288 3.712C7.09667 3.52 7.00067 3.28267 7 3C6.99933 2.71733 7.09533 2.48 7.288 2.288C7.48067 2.096 7.718 2 8 2H16C16.2833 2 16.521 2.096 16.713 2.288C16.905 2.48 17.0007 2.71733 17 3C16.9993 3.28267 16.9033 3.52033 16.712 3.713C16.5207 3.90567 16.2833 4.00133 16 4H8Z" fill="black"/>
</svg>
