<svg width="24" height="24" viewBox="0 0 24 24" fill="none" xmlns="http://www.w3.org/2000/svg">
<path d="M20.8393 2.17969L16.9093 2.95969L19.6493 6.49969L21.6193 6.09969L20.8393 2.17969ZM13.9693 3.53969L11.9993 3.92969L14.7493 7.45969L16.7093 7.06969L13.9693 3.53969ZM9.06934 4.49969L7.09934 4.90969L9.84934 8.43969L11.8093 8.04969L9.06934 4.49969ZM4.15934 5.49969L3.17934 5.68969C2.92174 5.74049 2.6767 5.84163 2.45827 5.98733C2.23984 6.13303 2.05232 6.32042 1.90646 6.53874C1.7606 6.75706 1.65927 7.00203 1.60829 7.2596C1.5573 7.51716 1.55766 7.78226 1.60934 8.03969L1.99934 9.99969L6.89934 9.02969L4.15934 5.49969ZM19.9993 11.9997V19.9997H3.99934V11.9997H19.9993ZM21.9993 9.99969H1.99934V19.9997C1.99934 20.5301 2.21006 21.0388 2.58513 21.4139C2.9602 21.789 3.46891 21.9997 3.99934 21.9997H19.9993C21.1093 21.9997 21.9993 21.1097 21.9993 19.9997V9.99969Z" fill="black"/>
</svg>
