<svg width="24" height="24" viewBox="0 0 24 24" fill="none" xmlns="http://www.w3.org/2000/svg">
<path d="M17.6566 11.2C17.4266 10.9 17.1466 10.64 16.8866 10.38C16.2166 9.78 15.4566 9.35 14.8166 8.72C13.3266 7.26 12.9966 4.85 13.9466 3C12.9966 3.23 12.1666 3.75 11.4566 4.32C8.86663 6.4 7.84663 10.07 9.06663 13.22C9.10663 13.32 9.14663 13.42 9.14663 13.55C9.14663 13.77 8.99663 13.97 8.79663 14.05C8.56663 14.15 8.32663 14.09 8.13663 13.93C8.07988 13.8825 8.03241 13.8248 7.99663 13.76C6.86663 12.33 6.68663 10.28 7.44663 8.64C5.77663 10 4.86663 12.3 4.99663 14.47C5.05663 14.97 5.11663 15.47 5.28663 15.97C5.42663 16.57 5.69663 17.17 5.99663 17.7C7.07663 19.43 8.94663 20.67 10.9566 20.92C13.0966 21.19 15.3866 20.8 17.0266 19.32C18.8566 17.66 19.4966 15 18.5566 12.72L18.4266 12.46C18.2166 12 17.6566 11.2 17.6566 11.2ZM14.4966 17.5C14.2166 17.74 13.7566 18 13.3966 18.1C12.2766 18.5 11.1566 17.94 10.4966 17.28C11.6866 17 12.3966 16.12 12.6066 15.23C12.7766 14.43 12.4566 13.77 12.3266 13C12.2066 12.26 12.2266 11.63 12.4966 10.94C12.6866 11.32 12.8866 11.7 13.1266 12C13.8966 13 15.1066 13.44 15.3666 14.8C15.4066 14.94 15.4266 15.08 15.4266 15.23C15.4566 16.05 15.0966 16.95 14.4966 17.5Z" fill="black"/>
</svg>
