<svg width="48" height="48" viewBox="0 0 48 48" fill="none" xmlns="http://www.w3.org/2000/svg">
<path fill-rule="evenodd" clip-rule="evenodd" d="M12.1113 14.4914C8.28492 16.7005 6.97391 21.5933 9.18305 25.4196C9.93185 26.7166 10.9897 27.7247 12.2091 28.4046L11.6113 28.7498C7.78495 30.9589 6.47395 35.8516 8.68309 39.678C10.8922 43.5043 15.785 44.8153 19.6113 42.6062L35.1997 33.6062C39.0261 31.397 40.3371 26.5043 38.128 22.678C37.3792 21.381 36.3213 20.3728 35.1019 19.693L35.6997 19.3478C39.5261 17.1387 40.8371 12.246 38.6279 8.41961C36.4188 4.59327 31.5261 3.28227 27.6997 5.49141L12.1113 14.4914ZM21 29.1962L30 24L21 18.8039L21 29.1962Z" fill="black"/>
</svg>
